PathFileType	4	(X/Y/Z)	D:\Vicon data\Senior Design EMG regression\Subject 2- Oliver\Session 3\oliver- static trial.trc
DataRate	CameraRate	NumFrames	NumMarkers	Units	OrigDataRate	OrigDataStartFrame	OrigNumFrames
100.0	100.0	4	60	mm	100.0	71	565	
Frame#	Time	HEAD			C7			CLAV			STUR			LSHO			LHAR2			LHME			LRAH			LRAD			LULN			LMCM			RSHO			RHAR2			RHME			RRAH			RRAD			RULN			RMCM			LASI			RASI			LPSI			RPSI			LLAT			LLFC			LKNE			LLAN			LHEE			LTOE			RLAT			RLFC			RKNE			RLAN			RHEE			RTOE			RSMT			RMAN			LSMT			LMAN			RSAT1			RSAT			RMFC			LSAT1			LSAT			LMFC			BARB			RHAR1			RHGT			RHHB			RHHF			RHLE			RMCR			RMCA			RMCI			LHHF			LHHB			LHGT			LHAR1			LHLE			LMCR			LMCI			
		X1	Y1	Z1	X2	Y2	Z2	X3	Y3	Z3	X4	Y4	Z4	X5	Y5	Z5	X6	Y6	Z6	X7	Y7	Z7	X8	Y8	Z8	X9	Y9	Z9	X10	Y10	Z10	X11	Y11	Z11	X12	Y12	Z12	X13	Y13	Z13	X14	Y14	Z14	X15	Y15	Z15	X16	Y16	Z16	X17	Y17	Z17	X18	Y18	Z18	X19	Y19	Z19	X20	Y20	Z20	X21	Y21	Z21	X22	Y22	Z22	X23	Y23	Z23	X24	Y24	Z24	X25	Y25	Z25	X26	Y26	Z26	X27	Y27	Z27	X28	Y28	Z28	X29	Y29	Z29	X30	Y30	Z30	X31	Y31	Z31	X32	Y32	Z32	X33	Y33	Z33	X34	Y34	Z34	X35	Y35	Z35	X36	Y36	Z36	X37	Y37	Z37	X38	Y38	Z38	X39	Y39	Z39	X40	Y40	Z40	X41	Y41	Z41	X42	Y42	Z42	X43	Y43	Z43	X44	Y44	Z44	X45	Y45	Z45	X46	Y46	Z46	X47	Y47	Z47	X48	Y48	Z48	X49	Y49	Z49	X50	Y50	Z50	X51	Y51	Z51	X52	Y52	Z52	X53	Y53	Z53	X54	Y54	Z54	X55	Y55	Z55	X56	Y56	Z56	X57	Y57	Z57	X58	Y58	Z58	X59	Y59	Z59	X60	Y60	Z60	
71	0.7	0.9799915	1658.9517	-417.68051	2.2958345	1487.9962	-198.98988	6.7705183	1421.6537	-334.53708	6.9206963	1219.9783	-387.32315	-152.71272	1480.785	-264.14426	-318.89203	1433.7831	-317.47574	-408.63785	1308.4176	-350.39981	-374.6026	1386.702	-393.61761	-365.44434	1365.1954	-580.3869	-441.27963	1359.66	-583.45441	-387.00876	1374.0385	-668.15381	163.40689	1466.0934	-238.26886	312.76932	1420.2699	-290.38522	422.87927	1392.6853	-299.6138	403.29169	1386.1467	-342.83218	417.12207	1348.1217	-540.99017	487.73215	1369.1748	-533.75226	457.06747	1355.3943	-633.38007	-80.658333	924.64972	-393.99432	135.62944	942.47479	-384.35043	-16.652462	992.34027	-165.21826	61.127857	992.00275	-162.45792	-130.10271	581.63159	-325.71915	-116.82351	489.94598	-308.24374	-72.15786	435.17374	-336.09424	-125.9142	93.487213	-225.52602	-83.067368	73.638695	-163.14645	-90.448402	48.756344	-427.19135	215.22655	725.71423	-291.90024	140.01704	483.83398	-307.14069	99.251724	445.65552	-324.75195	149.85544	88.749893	-220.29337	104.59337	71.848373	-165.38501	113.66949	54.097973	-422.63712	166.72845	53.762775	-360.42218	67.096672	98.859772	-239.45827	-148.61017	54.575748	-346.06955	-39.031502	95.04277	-241.34142	156.50169	814.36493	-387.46811	122.16753	605.24451	-370.48508	43.48114	469.95209	-286.37854	-74.848969	790.55511	-416.80933	-84.571442	637.50433	-390.20132	-14.390663	472.22733	-307.34824	56.793198	1237.3402	-147.19086	378.7594	1385.7142	-246.15762	271.38016	1438.5037	-233.19044	183.70129	1380.5396	-172.685	174.2565	1428.7072	-322.85049				480.56296	1352.8694	-623.25385	495.2915	1356.6166	-591.77618	433.28085	1355.6342	-633.08521	-152.58772	1428.2024	-346.54092	-193.60594	1418.613	-219.77467	-257.5506	1468.0017	-287.4635	-376.23846	1402.9474	-278.60831	-416.73834	1411.0697	-336.64764	-412.48474	1368.4686	-668.2677	-357.42465	1370.0737	-667.35828
72	0.71	0.98683625	1658.9237	-417.66382	2.3916905	1488	-199.00209	6.8080368	1421.6179	-334.50323	6.9477606	1219.9355	-387.34113	-152.6546	1480.7433	-264.13113	-318.79813	1433.7299	-317.49976	-408.54724	1308.3678	-350.37811	-374.55682	1386.6094	-393.60452	-365.37607	1365.0594	-580.3501	-441.21576	1359.5531	-583.45081	-386.87579	1373.9043	-668.31189	163.49341	1466.0383	-238.25851	312.84036	1420.2283	-290.37527	423.1351	1392.6116	-299.69513	403.35986	1386.1335	-342.84393	416.98111	1348.4052	-541.19678	487.85587	1369.2041	-533.77368	457.185	1355.429	-633.41644	-80.628593	924.6015	-393.97522	135.63612	942.40369	-384.36444	-16.557001	992.3421	-165.19365	61.226562	992.00507	-162.47012	-130.10167	581.5943	-325.73889	-116.79449	489.9202	-308.24045	-72.182999	435.13748	-336.14441	-125.897	93.458809	-225.59315	-83.034172	73.629257	-163.17946	-90.450119	48.733273	-427.20667	215.22008	725.68152	-291.93433	140.00743	483.78754	-307.12314	99.250771	445.60098	-324.71231	149.88322	88.721237	-220.33504	104.61427	71.839935	-165.39696	113.66319	54.065098	-422.65552	166.74391	53.749729	-360.44196	67.099289	98.836563	-239.4317	-148.61584	54.536793	-346.09506	-39.021465	95.029259	-241.3661	156.54712	814.34375	-387.52533	122.17313	605.19495	-370.50208	43.484344	469.9332	-286.43915	-74.88031	790.52618	-416.7977	-84.561829	637.46161	-390.19604	-14.410069	472.13406	-307.35898	56.876865	1237.3505	-147.16496	378.82846	1385.652	-246.12042	271.44922	1438.4436	-233.16217	183.76552	1380.5066	-172.67654	174.32005	1428.646	-322.84772				480.63416	1352.8796	-623.34662	495.3894	1356.6241	-591.7854	433.34692	1355.6989	-633.07764	-152.54765	1428.1034	-346.52286	-193.51965	1418.6517	-219.70857	-257.45917	1467.9474	-287.46564	-376.18588	1402.9352	-278.58984	-416.6543	1411.0308	-336.6492	-412.45605	1368.5575	-668.03656	-357.36206	1369.9769	-667.33795
73	0.72	1.0144818	1658.9512	-417.68408	2.4544191	1488.0033	-198.96242	6.8824873	1421.6476	-334.52124	7.0012279	1219.9396	-387.34088	-152.60568	1480.7322	-264.08212	-318.74722	1433.6902	-317.49533	-408.44345	1308.3103	-350.36905	-374.45685	1386.5469	-393.58276	-365.06082	1365.067	-580.36298	-441.13	1359.4418	-583.41528	-386.80756	1373.9802	-667.61633	163.56264	1466.0046	-238.22346	312.9017	1420.2032	-290.34418	423.24133	1392.6417	-299.77005	403.43024	1386.1145	-342.86478	417.03046	1348.411	-541.17267	487.92789	1369.2368	-533.7605	457.25766	1355.4501	-633.34247	-80.618019	924.63806	-393.99292	135.66679	942.40283	-384.39774	-16.488365	992.33716	-165.1951	61.266594	992.00311	-162.4807	-130.1118	581.66571	-325.7027	-116.81792	489.95837	-308.22955	-72.122543	435.13602	-336.18912	-125.91545	93.501556	-225.56656	-83.068176	73.611458	-163.1604	-90.456741	48.71497	-427.21414	215.25497	725.7074	-291.95779	140.03773	483.82983	-307.09473	99.307091	445.59225	-324.67303	149.85059	88.725876	-220.32626	104.60107	71.831993	-165.40195	113.65377	54.06358	-422.63959	166.72748	53.746101	-360.45264	67.101212	98.874138	-239.4136	-148.5975	54.544804	-346.10101	-39.039291	95.024231	-241.37685	156.53622	814.31519	-387.53171	122.19576	605.21564	-370.48975	43.523254	469.9556	-286.35062	-74.862816	790.5675	-416.81631	-84.549225	637.46588	-390.20178	-14.414625	472.086	-307.34149	56.899677	1237.3427	-147.15234	378.89917	1385.6239	-246.12474	271.54086	1438.3856	-233.11571	183.81459	1380.4902	-172.66574	174.396	1428.6544	-322.83569				480.70303	1352.9459	-623.30096	495.51385	1356.6438	-591.77795	433.39627	1355.7527	-633.12018	-152.47755	1428.0271	-346.50244	-193.47922	1418.6403	-219.64845	-257.43814	1467.9146	-287.44986	-376.14713	1402.9266	-278.56308	-416.58936	1411.0123	-336.64035	-412.27597	1368.4706	-668.13824	-357.28891	1369.8208	-667.29919
74	0.73	1.007205	1659.0155	-417.65405	2.5482795	1487.9813	-198.9409	6.9595637	1421.6785	-334.49719	7.0428057	1219.9366	-387.3075	-152.55511	1480.7245	-264.05124	-318.67419	1433.6797	-317.49258	-408.41196	1308.2629	-350.2764	-374.40128	1386.48	-393.52353	-365.16693	1364.8013	-580.25476	-441.05319	1359.2864	-583.37769	-386.69928	1373.7566	-668.11578	163.66246	1465.9628	-238.19038	312.98932	1420.1683	-290.29578	423.08917	1392.4495	-299.71356	403.50873	1386.0688	-342.8588	417.31305	1348.1946	-540.98834	488.06879	1369.2822	-533.74799	457.3349	1355.5983	-633.38477	-80.633179	924.65686	-393.93277	135.66617	942.42163	-384.42166	-16.403309	992.33423	-165.18681	61.334961	991.9585	-162.5325	-130.15379	581.69537	-325.69681	-116.79462	489.95547	-308.22583	-72.101448	435.15689	-336.16074	-125.92727	93.524719	-225.51514	-83.068703	73.638641	-163.15694	-90.447792	48.753616	-427.18704	215.28552	725.72302	-291.94321	140.05167	483.84583	-307.01874	99.351234	445.64383	-324.6189	149.8925	88.768196	-220.32838	104.61767	71.846077	-165.39648	113.68005	54.108967	-422.63446	166.73163	53.765137	-360.42944	67.124863	98.923767	-239.39455	-148.59352	54.567059	-346.08047	-39.008595	95.058533	-241.38835	156.58298	814.34229	-387.55225	122.24306	605.23596	-370.45435	43.576286	470.04449	-286.33008	-74.904755	790.57013	-416.79056	-84.543732	637.49469	-390.18665	-14.41225	472.10965	-307.3392	56.965359	1237.3124	-147.15048	378.94806	1385.5605	-246.10297	271.61578	1438.3273	-233.05331	183.88429	1380.4382	-172.63644	174.47427	1428.6322	-322.78906				480.83585	1353.0117	-623.29254	495.61688	1356.6868	-591.78247	433.54172	1355.7778	-633.08704	-152.38681	1427.9965	-346.49713	-193.40549	1418.606	-219.61989	-257.36194	1467.8729	-287.45615	-376.07904	1402.9188	-278.53625	-416.4921	1411.0127	-336.63651	-412.25549	1368.4463	-668.25006	-357.21811	1369.6572	-667.25946
